<?xml version="1.0" encoding="UTF-8"?>
<svg id="Layer_1" data-name="Layer 1" xmlns="http://www.w3.org/2000/svg" viewBox="0 0 266.971226 273.975053">
  <defs>
    <style>
      .cls-1 {
        fill: #000;
      }

      .cls-1, .cls-2 {
        stroke-width: 0px;
      }

      .cls-2 {
        fill: #f0e442;
      }
    </style>
  </defs>
  <path class="cls-1" d="M202.657765,245.118711c0,1.984711.093658,3.851578-.015381,5.706497-.647324,11.012222-9.029404,21.130386-19.555389,22.890793-4.12706.690216-8.025452-.003296-11.699097-2.026978-9.799927-5.398621-19.670227-10.673035-29.391586-16.209229-5.447983-3.10257-10.666153-6.61055-15.969757-9.964508-13.546471-8.566757-27.085419-17.145401-40.622375-25.727173-12.491798-7.919159-24.973301-15.854553-37.466335-23.77179-11.71645-7.425064-23.447193-14.827591-35.158932-22.260071-2.124153-1.348038-4.34094-2.61113-6.248289-4.228027-5.122809-4.342743-6.917775-10.125046-6.462659-16.647293.484018-6.936462,3.506771-12.695709,8.600681-17.380142,12.536384-11.52861,25.086158-23.042664,37.6268-34.566643,11.92281-10.95623,23.841812-21.916618,35.760788-32.877022,13.007683-11.961536,26.015366-23.923073,39.01915-35.888844,6.295586-5.793056,12.576248-11.602333,18.875092-17.391844,4.237228-3.894613,9.108307-6.294073,14.989777-6.311443,3.655502-.010798,6.832916,1.432967,9.956528,3.117929,6.647934,3.586088,13.318726,7.129797,19.967133,10.715027.816406.44025,1.377869.40213,2.099884-.268768,5.798492-5.388025,11.616455-10.755712,17.47757-16.075508,4.406433-3.99945,9.506424-6.28141,15.588715-5.915425,2.602478.156596,5.005661.976934,7.291824,2.193449,7.373825,3.92377,14.74968,7.843728,22.126144,11.76253,2.575806,1.368402,5.147339,2.745148,7.735413,4.090069,5.638123,2.929949,8.52359,7.75526,9.528687,13.854382.193787,1.176022.258972,2.385387.259033,3.579376.000854,23.476696-.010345,46.9534-.032898,70.430084-.014069,14.637192-.051117,29.274361-.077515,43.911552-.026306,14.597305-.057159,29.19458-.076904,43.791885-.019775,14.63768-.060455,29.275452-.023346,43.912994.012177,4.811081-.374786,9.517532-2.60495,13.877747-3.857666,7.542175-9.689499,12.534698-18.297211,13.676422-3.136032.415924-6.264008-.038208-9.095139-1.556549-6.936371-3.720032-13.837158-7.506653-20.741287-11.28653-4.205475-2.302444-8.389786-4.643555-12.587845-6.959595-.159882-.088211-.364182-.095917-.776291-.197372l-.000031.000015ZM246.801366,38.289999c-43.969345,40.482323-87.811584,80.847618-131.857925,121.400841,43.974884,27.947083,87.731735,55.755585,131.488556,83.564072.123138-.081848.246246-.163681.36937-.245529V38.289999ZM50.574994,168.37303c44.125359,27.991135,87.983604,55.812866,131.987556,83.727005.060394-.485153.113419-.713089.113602-.941071.005646-6.958466.023056-13.917068-.030502-20.875107-.003616-.469254-.438736-1.105515-.858719-1.375748-6.578796-4.233521-13.186386-8.422302-19.790817-12.615921-11.253586-7.145737-22.509628-14.287643-33.764557-21.431229-7.482178-4.749023-14.938812-9.538986-22.457382-14.229675-3.614685-2.255157-6.948891-4.744827-8.770515-8.743118-3.668068-8.05098-2.465385-15.720627,1.996132-23.064392,1.955681-3.219131,4.851852-5.603455,7.582771-8.11937,7.963638-7.33667,15.93676-14.66304,23.904106-21.995697,10.231827-9.41674,20.464005-18.833099,30.691452-28.254585,6.612991-6.09185,13.18428-12.229683,19.854523-18.25808,1.334915-1.206459,1.915787-2.422646,1.889938-4.219467-.089706-6.237759-.027283-12.477657-.034943-18.716728-.000854-.696777-.079666-1.393467-.12233-2.090195-.103546-.054283-.207108-.10857-.310669-.162853-43.906372,40.406162-87.812752,80.812321-131.879669,121.36623h.000023Z"/>
  <path class="cls-2" d="M246.801366,38.289999v204.719398c-.123138.081848-.246246.163681-.36937.245529-43.756821-27.808487-87.513672-55.616989-131.488556-83.564072,44.046341-40.553223,87.88858-80.918518,131.857925-121.400841v-.000015Z"/>
  <path class="cls-2" d="M50.574994,168.37303c44.066917-40.553909,87.973289-80.960068,131.879677-121.366226.103546.054283.207108.10857.310669.162853.042664.696728.121475,1.393414.12233,2.090195.007645,6.239071-.054764,12.478966.034943,18.716724.025833,1.796822-.555023,3.013008-1.889938,4.219467-6.670242,6.028397-13.241531,12.166222-19.854523,18.258072-10.227448,9.421486-20.459625,18.837845-30.691452,28.254585-7.967346,7.332657-15.940468,14.659035-23.904106,21.995705-2.730919,2.515915-5.62709,4.900238-7.582771,8.11937-4.461517,7.343765-5.664207,15.013397-1.996132,23.064392,1.821625,3.998291,5.15583,6.487976,8.770515,8.743118,7.51857,4.690674,14.975197,9.480652,22.457382,14.229675,11.254944,7.143585,22.510971,14.285492,33.764557,21.431229,6.604431,4.193634,13.212021,8.382401,19.790817,12.615921.419983.270233.855103.906509.858719,1.375748.053558,6.958038.036133,13.916641.030502,20.875107-.000183.227982-.053207.455917-.113602.941071-44.003967-27.914154-87.862213-55.73587-131.987564-83.72702l-.000023.000015Z"/>
</svg>